<svg aria-hidden="true" style="position: absolute; width: 0; height: 0; overflow: hidden;" version="1.1" xmlns="http://www.w3.org/2000/svg" xmlns:xlink="http://www.w3.org/1999/xlink">
<defs>

<symbol id="title" viewBox="0 0 81 32">
<path d="M0.456 8.107v-7.967h1.25v3.472l1.639-3.472h1.25l-1.739 3.55 1.739 4.417h-1.283l-1.217-3.172-0.389 0.728v2.444h-1.25zM4.839 8.107l1.272-7.967h1.833l1.272 7.967h-1.261l-0.217-1.444h-1.539l-0.217 1.444h-1.144zM6.361 5.579h1.206l-0.6-4.028-0.606 4.028zM9.8 8.107v-7.967h1.25v3.472l1.639-3.472h1.25l-1.739 3.55 1.739 4.417h-1.283l-1.217-3.172-0.389 0.728v2.444h-1.25zM16.172 6.196v-4.144c0-0.641 0.159-1.133 0.478-1.478 0.319-0.348 0.782-0.522 1.389-0.522s1.070 0.174 1.389 0.522c0.318 0.344 0.478 0.837 0.478 1.478v0.778h-1.183v-0.856c0-0.522-0.215-0.783-0.645-0.783-0.433 0-0.65 0.261-0.65 0.783v4.3c0 0.519 0.217 0.778 0.65 0.778 0.43 0 0.645-0.259 0.645-0.778v-1.139h1.183v1.061c0 0.641-0.159 1.135-0.478 1.483-0.319 0.344-0.782 0.517-1.389 0.517s-1.070-0.172-1.389-0.517c-0.318-0.348-0.478-0.843-0.478-1.483zM20.561 6.196v-4.144c0-0.637 0.165-1.13 0.494-1.478s0.8-0.522 1.411-0.522c0.611 0 1.080 0.174 1.406 0.522 0.33 0.348 0.494 0.841 0.494 1.478v4.144c0 0.637-0.165 1.13-0.494 1.478-0.326 0.348-0.794 0.522-1.406 0.522s-1.081-0.174-1.411-0.522c-0.33-0.348-0.494-0.841-0.494-1.478zM21.817 6.273c0 0.526 0.217 0.789 0.65 0.789 0.43 0 0.644-0.263 0.644-0.789v-4.3c0-0.522-0.215-0.783-0.644-0.783-0.433 0-0.65 0.261-0.65 0.783v4.3zM25.111 6.196v-0.878h1.183v0.956c0 0.526 0.215 0.789 0.644 0.789 0.215 0 0.376-0.067 0.483-0.2 0.111-0.133 0.167-0.367 0.167-0.7v-0.628c0-0.363-0.065-0.622-0.194-0.778-0.126-0.156-0.333-0.233-0.622-0.233h-0.311v-1.139h0.378c0.248 0 0.435-0.063 0.561-0.189 0.126-0.13 0.189-0.346 0.189-0.65v-0.444c0-0.341-0.055-0.578-0.167-0.711-0.107-0.133-0.268-0.2-0.483-0.2-0.437 0-0.655 0.261-0.655 0.783v0.65h-1.15v-0.594c0-0.641 0.155-1.13 0.467-1.467 0.311-0.341 0.77-0.511 1.378-0.511s1.069 0.174 1.383 0.522c0.319 0.344 0.478 0.837 0.478 1.478v0.206c0 0.852-0.291 1.398-0.872 1.639 0.581 0.252 0.872 0.809 0.872 1.672v0.628c0 0.641-0.159 1.135-0.478 1.483-0.315 0.344-0.776 0.517-1.383 0.517s-1.070-0.172-1.389-0.517c-0.319-0.348-0.478-0.843-0.478-1.483zM29.417 9.179v-2.189h0.489c0.104-0.13 0.178-0.272 0.222-0.428 0.044-0.159 0.072-0.361 0.083-0.606l0.283-5.817h3.505v6.85h0.545v2.189h-1.239v-1.072h-2.672v1.072h-1.217zM31.089 6.99h1.639v-5.711h-1.061l-0.228 4.656c-0.015 0.293-0.050 0.517-0.106 0.672-0.055 0.152-0.137 0.28-0.244 0.383zM34.917 8.107l1.272-7.967h1.833l1.272 7.967h-1.261l-0.217-1.444h-1.539l-0.217 1.444h-1.144zM36.439 5.579h1.206l-0.6-4.028-0.606 4.028zM39.511 1.279v-1.139h3.872v1.139h-1.311v6.828h-1.25v-6.828h-1.311zM43.933 8.107v-7.967h1.25v2.994h0.594c0.619 0 1.083 0.169 1.395 0.506 0.315 0.333 0.472 0.82 0.472 1.461v1.039c0 0.641-0.157 1.13-0.472 1.467-0.311 0.333-0.776 0.5-1.395 0.5h-1.844zM45.183 6.968h0.595c0.207 0 0.361-0.056 0.461-0.167 0.1-0.115 0.15-0.309 0.15-0.583v-1.194c0-0.274-0.050-0.467-0.15-0.578-0.1-0.115-0.254-0.172-0.461-0.172h-0.594v2.694zM50.156 8.107v-7.967h3.95v7.967h-1.278v-6.828h-1.422v6.828h-1.25zM55.011 8.107v-7.967h1.844c0.619 0 1.083 0.169 1.394 0.506 0.315 0.337 0.472 0.826 0.472 1.467v1.033c0 0.641-0.157 1.13-0.472 1.467-0.311 0.333-0.776 0.5-1.394 0.5h-0.594v2.994h-1.25zM56.261 3.979h0.595c0.207 0 0.361-0.057 0.461-0.172s0.15-0.309 0.15-0.583v-1.194c0-0.274-0.050-0.467-0.15-0.578-0.1-0.115-0.254-0.172-0.461-0.172h-0.594v2.7zM59.3 8.107v-7.967h1.117v5.044l0.456-1.756 1.022-3.289h1.378v7.967h-1.128v-5.611l-0.511 1.961-1.050 3.65h-1.283zM64.156 8.107v-7.967h1.844c0.619 0 1.083 0.169 1.394 0.506 0.315 0.337 0.472 0.826 0.472 1.467v1.033c0 0.641-0.157 1.13-0.472 1.467-0.311 0.333-0.776 0.5-1.394 0.5h-0.594v2.994h-1.25zM65.406 3.979h0.594c0.207 0 0.361-0.057 0.461-0.172s0.15-0.309 0.15-0.583v-1.194c0-0.274-0.050-0.467-0.15-0.578-0.1-0.115-0.254-0.172-0.461-0.172h-0.594v2.7zM68.339 6.196v-4.144c0-0.637 0.165-1.13 0.494-1.478s0.8-0.522 1.411-0.522 1.080 0.174 1.406 0.522c0.33 0.348 0.495 0.841 0.495 1.478v4.144c0 0.637-0.165 1.13-0.495 1.478-0.326 0.348-0.794 0.522-1.406 0.522s-1.081-0.174-1.411-0.522c-0.33-0.348-0.494-0.841-0.494-1.478zM69.594 6.273c0 0.526 0.217 0.789 0.65 0.789 0.43 0 0.645-0.263 0.645-0.789v-4.3c0-0.522-0.215-0.783-0.645-0.783-0.433 0-0.65 0.261-0.65 0.783v4.3zM72.85 6.196v-4.144c0-0.641 0.159-1.133 0.478-1.478 0.319-0.348 0.781-0.522 1.389-0.522s1.070 0.174 1.389 0.522c0.319 0.344 0.478 0.837 0.478 1.478v0.778h-1.183v-0.856c0-0.522-0.215-0.783-0.644-0.783-0.433 0-0.65 0.261-0.65 0.783v4.3c0 0.519 0.217 0.778 0.65 0.778 0.43 0 0.644-0.259 0.644-0.778v-1.139h1.183v1.061c0 0.641-0.159 1.135-0.478 1.483-0.318 0.344-0.781 0.517-1.389 0.517s-1.070-0.172-1.389-0.517c-0.319-0.348-0.478-0.843-0.478-1.483zM76.978 1.279v-1.139h3.872v1.139h-1.311v6.828h-1.25v-6.828h-1.311zM0.089 12.657v-1.139h3.872v1.139h-1.311v6.828h-1.25v-6.828h-1.311zM4.511 19.484v-7.967h1.844c0.619 0 1.083 0.169 1.394 0.506 0.315 0.337 0.472 0.826 0.472 1.467v1.033c0 0.641-0.157 1.13-0.472 1.467-0.311 0.333-0.776 0.5-1.394 0.5h-0.594v2.994h-1.25zM5.761 15.357h0.594c0.207 0 0.361-0.057 0.461-0.172s0.15-0.309 0.15-0.583v-1.194c0-0.274-0.050-0.467-0.15-0.578-0.1-0.115-0.254-0.172-0.461-0.172h-0.594v2.7zM8.472 19.484l1.272-7.967h1.833l1.272 7.967h-1.261l-0.217-1.444h-1.539l-0.217 1.444h-1.144zM9.994 16.957h1.206l-0.6-4.028-0.606 4.028zM13.328 16.618v-2.172c0-0.641 0.156-1.13 0.467-1.467 0.315-0.337 0.781-0.506 1.4-0.506h0.467v-0.956h1.233v0.956h0.461c0.619 0 1.083 0.169 1.395 0.506 0.315 0.337 0.472 0.826 0.472 1.467v2.172c0 0.641-0.157 1.13-0.472 1.467-0.311 0.333-0.776 0.5-1.395 0.5h-0.461v0.9h-1.233v-0.9h-0.467c-0.619 0-1.085-0.167-1.4-0.5-0.311-0.337-0.467-0.826-0.467-1.467zM14.572 16.696c0 0.533 0.207 0.8 0.622 0.8h0.467v-3.917h-0.467c-0.207 0-0.363 0.063-0.467 0.189-0.104 0.122-0.156 0.32-0.156 0.594v2.333zM16.894 17.496h0.461c0.419 0 0.628-0.267 0.628-0.8v-2.333c0-0.522-0.209-0.783-0.628-0.783h-0.461v3.917zM20.067 19.484v-7.967h1.117v5.044l0.456-1.756 1.022-3.289h1.378v7.967h-1.128v-5.611l-0.511 1.961-1.050 3.65h-1.283zM24.922 19.484v-7.967h1.25v3.472l1.639-3.472h1.25l-1.739 3.55 1.739 4.417h-1.283l-1.217-3.172-0.389 0.728v2.445h-1.25zM29.306 19.484l1.272-7.967h1.833l1.272 7.967h-1.261l-0.217-1.444h-1.539l-0.217 1.444h-1.144zM30.828 16.957h1.205l-0.6-4.028-0.606 4.028zM36.033 19.484v-7.967h1.117v5.044l0.456-1.756 1.022-3.289h1.378v7.967h-1.128v-5.611l-0.511 1.961-1.050 3.65h-1.283zM42.656 19.484v-7.967h3.95v7.967h-1.278v-6.828h-1.422v6.828h-1.25zM47.511 19.484v-7.967h1.844c0.619 0 1.083 0.169 1.395 0.506 0.315 0.337 0.472 0.826 0.472 1.467v1.033c0 0.641-0.157 1.13-0.472 1.467-0.311 0.333-0.776 0.5-1.395 0.5h-0.594v2.994h-1.25zM48.761 15.357h0.594c0.208 0 0.361-0.057 0.461-0.172s0.15-0.309 0.15-0.583v-1.194c0-0.274-0.050-0.467-0.15-0.578-0.1-0.115-0.254-0.172-0.461-0.172h-0.594v2.7zM51.694 17.573v-4.144c0-0.637 0.165-1.13 0.494-1.478s0.8-0.522 1.411-0.522c0.611 0 1.080 0.174 1.406 0.522 0.33 0.348 0.494 0.841 0.494 1.478v4.144c0 0.637-0.165 1.13-0.494 1.478-0.326 0.348-0.794 0.522-1.406 0.522s-1.081-0.174-1.411-0.522c-0.33-0.348-0.494-0.841-0.494-1.478zM52.95 17.651c0 0.526 0.217 0.789 0.65 0.789 0.43 0 0.644-0.263 0.644-0.789v-4.3c0-0.522-0.215-0.783-0.644-0.783-0.433 0-0.65 0.261-0.65 0.783v4.3zM56.039 20.557v-2.189h0.489c0.104-0.13 0.178-0.272 0.222-0.428 0.044-0.159 0.072-0.361 0.083-0.606l0.283-5.817h3.505v6.85h0.544v2.189h-1.239v-1.072h-2.672v1.072h-1.217zM57.711 18.368h1.639v-5.711h-1.061l-0.228 4.656c-0.015 0.293-0.050 0.517-0.106 0.672-0.056 0.152-0.137 0.28-0.244 0.383zM61.539 19.484l1.272-7.967h1.833l1.272 7.967h-1.261l-0.217-1.444h-1.539l-0.217 1.444h-1.144zM63.061 16.957h1.206l-0.6-4.028-0.606 4.028zM66.133 19.484l1.55-4.7-1.55-3.267h1.256l1.478 3.222v-3.222h1.239v3.222l1.478-3.222h1.256l-1.539 3.233 1.539 4.733h-1.289l-1.139-3.528-0.305 0.606v2.922h-1.239v-2.922l-0.306-0.617-1.139 3.539h-1.289zM0.456 30.862v-7.967h1.889c0.641 0 1.109 0.15 1.406 0.45 0.3 0.3 0.45 0.761 0.45 1.383v0.283c0 0.815-0.27 1.35-0.811 1.606 0.622 0.241 0.933 0.809 0.933 1.706v0.65c0 0.615-0.161 1.083-0.483 1.406s-0.794 0.483-1.417 0.483h-1.967zM1.706 29.723h0.717c0.219 0 0.381-0.059 0.489-0.178s0.161-0.32 0.161-0.606v-0.694c0-0.363-0.063-0.615-0.189-0.756-0.122-0.141-0.328-0.211-0.617-0.211h-0.561v2.444zM1.706 26.14h0.489c0.248 0 0.435-0.063 0.561-0.189 0.126-0.13 0.189-0.346 0.189-0.65v-0.444c0-0.285-0.050-0.492-0.15-0.622-0.1-0.133-0.261-0.2-0.483-0.2h-0.606v2.106zM6.844 30.862v-0.978c0-0.315 0.044-0.611 0.133-0.889 0.093-0.281 0.211-0.526 0.356-0.733 0.148-0.211 0.309-0.415 0.483-0.611 0.178-0.2 0.354-0.398 0.528-0.595 0.178-0.196 0.339-0.398 0.483-0.606 0.148-0.207 0.267-0.446 0.356-0.717 0.093-0.274 0.139-0.567 0.139-0.878 0-0.341-0.054-0.578-0.161-0.711s-0.269-0.2-0.483-0.2c-0.433 0-0.65 0.261-0.65 0.783v0.856h-1.183v-0.778c0-0.641 0.159-1.133 0.478-1.478 0.319-0.348 0.781-0.522 1.389-0.522s1.070 0.174 1.389 0.522c0.319 0.344 0.478 0.837 0.478 1.478 0 0.341-0.046 0.668-0.139 0.983-0.093 0.311-0.213 0.587-0.361 0.828-0.144 0.241-0.306 0.472-0.483 0.694-0.174 0.219-0.35 0.424-0.528 0.617-0.178 0.189-0.341 0.37-0.489 0.544-0.144 0.174-0.263 0.354-0.356 0.539s-0.139 0.365-0.139 0.539c0 0.078 0.004 0.135 0.011 0.172h2.367v1.139h-3.617zM11.25 28.951v-4.144c0-0.637 0.165-1.13 0.494-1.478s0.8-0.522 1.411-0.522c0.611 0 1.080 0.174 1.406 0.522 0.33 0.348 0.494 0.841 0.494 1.478v4.144c0 0.637-0.165 1.13-0.494 1.478-0.326 0.348-0.794 0.522-1.406 0.522s-1.082-0.174-1.411-0.522c-0.33-0.348-0.494-0.841-0.494-1.478zM12.506 29.029c0 0.526 0.217 0.789 0.65 0.789 0.43 0 0.644-0.263 0.644-0.789v-4.3c0-0.522-0.215-0.783-0.644-0.783-0.433 0-0.65 0.261-0.65 0.783v4.3zM15.867 30.862v-0.978c0-0.315 0.044-0.611 0.133-0.889 0.093-0.281 0.211-0.526 0.356-0.733 0.148-0.211 0.309-0.415 0.483-0.611 0.178-0.2 0.354-0.398 0.528-0.595 0.178-0.196 0.339-0.398 0.483-0.606 0.148-0.207 0.267-0.446 0.356-0.717 0.093-0.274 0.139-0.567 0.139-0.878 0-0.341-0.054-0.578-0.161-0.711s-0.268-0.2-0.483-0.2c-0.433 0-0.65 0.261-0.65 0.783v0.856h-1.183v-0.778c0-0.641 0.159-1.133 0.478-1.478 0.318-0.348 0.782-0.522 1.389-0.522s1.070 0.174 1.389 0.522c0.319 0.344 0.478 0.837 0.478 1.478 0 0.341-0.046 0.668-0.139 0.983-0.093 0.311-0.213 0.587-0.361 0.828-0.145 0.241-0.306 0.472-0.483 0.694-0.174 0.219-0.35 0.424-0.528 0.617-0.178 0.189-0.341 0.37-0.489 0.544-0.145 0.174-0.263 0.354-0.356 0.539s-0.139 0.365-0.139 0.539c0 0.078 0.004 0.135 0.011 0.172h2.367v1.139h-3.617zM20.311 28.951v-0.661h1.183v0.739c0 0.526 0.215 0.789 0.644 0.789 0.215 0 0.376-0.067 0.483-0.2 0.111-0.133 0.167-0.367 0.167-0.7v-0.628c0-0.363-0.065-0.622-0.194-0.778-0.126-0.155-0.333-0.233-0.622-0.233h-0.422v-1.139h0.489c0.248 0 0.435-0.063 0.561-0.189 0.126-0.13 0.189-0.346 0.189-0.65v-0.444c0-0.341-0.055-0.578-0.167-0.711-0.107-0.133-0.268-0.2-0.483-0.2-0.43 0-0.644 0.261-0.644 0.783v0.511h-1.183v-0.433c0-0.641 0.159-1.133 0.478-1.478 0.318-0.348 0.782-0.522 1.389-0.522s1.069 0.174 1.383 0.522c0.319 0.344 0.478 0.837 0.478 1.478v0.206c0 0.852-0.291 1.398-0.872 1.639 0.581 0.252 0.872 0.809 0.872 1.672v0.628c0 0.641-0.159 1.135-0.478 1.483-0.315 0.344-0.776 0.517-1.383 0.517s-1.070-0.172-1.389-0.517c-0.319-0.348-0.478-0.843-0.478-1.483zM26.667 30.862v-7.967h3.3v1.139h-2.050v6.828h-1.25zM30.706 28.951v-4.144c0-0.637 0.165-1.13 0.494-1.478s0.8-0.522 1.411-0.522c0.611 0 1.080 0.174 1.406 0.522 0.33 0.348 0.494 0.841 0.494 1.478v4.144c0 0.637-0.165 1.13-0.494 1.478-0.326 0.348-0.794 0.522-1.406 0.522s-1.081-0.174-1.411-0.522c-0.33-0.348-0.494-0.841-0.494-1.478zM31.961 29.029c0 0.526 0.217 0.789 0.65 0.789 0.43 0 0.644-0.263 0.644-0.789v-4.3c0-0.522-0.215-0.783-0.644-0.783-0.433 0-0.65 0.261-0.65 0.783v4.3zM35.050 31.934v-2.189h0.489c0.104-0.13 0.178-0.272 0.222-0.428 0.044-0.159 0.072-0.361 0.083-0.606l0.283-5.817h3.506v6.85h0.544v2.189h-1.239v-1.072h-2.672v1.072h-1.217zM36.722 29.745h1.639v-5.711h-1.061l-0.228 4.656c-0.015 0.293-0.050 0.517-0.106 0.672-0.056 0.152-0.137 0.28-0.244 0.383zM40.511 22.895h1.244l0.678 2.722 0.389 1.867 0.294-1.856 0.572-2.733h1.305l-1.339 5.939c-0.063 0.304-0.133 0.563-0.211 0.778-0.078 0.211-0.18 0.407-0.306 0.589-0.126 0.178-0.278 0.317-0.456 0.417s-0.396 0.174-0.656 0.222c-0.256 0.044-0.556 0.055-0.9 0.033v-1.117c0.341 0.022 0.598-0.011 0.772-0.1s0.285-0.27 0.333-0.544l0.011-0.072-1.733-6.145zM45.294 25.596v-0.789c0-0.641 0.155-1.133 0.467-1.478 0.315-0.348 0.774-0.522 1.378-0.522s1.061 0.174 1.372 0.522c0.315 0.344 0.472 0.837 0.472 1.478 0 0.281-0.028 0.544-0.083 0.789-0.052 0.241-0.122 0.45-0.211 0.628s-0.185 0.346-0.289 0.506c-0.104 0.159-0.209 0.311-0.317 0.456-0.104 0.144-0.2 0.289-0.289 0.433-0.089 0.141-0.161 0.3-0.217 0.478-0.052 0.178-0.078 0.365-0.078 0.561 0 0.163 0.015 0.311 0.044 0.444h-1.111c-0.048-0.152-0.072-0.317-0.072-0.494 0-0.319 0.046-0.609 0.139-0.872 0.096-0.263 0.211-0.491 0.344-0.683 0.133-0.196 0.267-0.394 0.4-0.595s0.246-0.446 0.339-0.739c0.096-0.296 0.145-0.626 0.145-0.989 0-0.274-0.052-0.472-0.156-0.595-0.104-0.126-0.259-0.189-0.467-0.189-0.419 0-0.628 0.261-0.628 0.783v0.867h-1.183zM46.378 30.862v-1.206h1.205v1.206h-1.205z"></path>
</symbol>
</defs>
</svg>
